<?xml version="1.0" encoding="utf-8"?>
<svg width="500px" height="500px" viewBox="0 0 500 500" version="1.1" xmlns="http://www.w3.org/2000/svg" xmlns:bx="https://boxy-svg.com">
  <title>letterboxd-decal-dots-pos-rgb</title>
  <desc>Created with Sketch.</desc>
  <defs>
    <rect id="path-1" x="0" y="0" width="129.847328" height="141.389313"/>
    <rect id="path-3" x="0" y="0" width="129.847328" height="141.389313"/>
  </defs>
  <g id="letterboxd-decal-dots-pos-rgb" stroke="none" stroke-width="1" fill="none" fill-rule="evenodd">
    <circle id="Circle" fill="#202830" cx="250" cy="250" r="250"/>
    <g id="dots-neg" transform="translate(61.000000, 180.000000)">
      <g id="Dots">
        <ellipse id="Green" fill="#00E054" cx="189" cy="69.9732824" rx="70.0786517" ry="69.9732824"/>
        <g id="Blue" transform="translate(248.152672, 0.000000)">
          <mask id="mask-2" fill="white">
            <rect x="0" y="0" width="129.847328" height="141.389313" transform="matrix(1, 0, 0, 1, 0, 0)"/>
          </mask>
          <g id="Mask"/>
          <ellipse fill="#40BCF4" mask="url(#mask-2)" cx="59.7686766" cy="69.9732824" rx="70.0786517" ry="69.9732824"/>
        </g>
        <g id="Orange">
          <mask id="mask-4" fill="white">
            <rect x="0" y="0" width="129.847328" height="141.389313" transform="matrix(1, 0, 0, 1, 0, 0)"/>
          </mask>
          <g id="Mask"/>
          <ellipse fill="#FF8000" mask="url(#mask-4)" cx="70.0786517" cy="69.9732824" rx="70.0786517" ry="69.9732824"/>
        </g>
        <path d="M129.539326,107.022244 C122.810493,96.2781677 118.921348,83.5792213 118.921348,69.9732824 C118.921348,56.3673435 122.810493,43.6683972 129.539326,32.9243209 C136.268159,43.6683972 140.157303,56.3673435 140.157303,69.9732824 C140.157303,83.5792213 136.268159,96.2781677 129.539326,107.022244 Z" id="Overlap" fill="#FFFFFF"/>
        <path d="M248.460674,32.9243209 C255.189507,43.6683972 259.078652,56.3673435 259.078652,69.9732824 C259.078652,83.5792213 255.189507,96.2781677 248.460674,107.022244 C241.731841,96.2781677 237.842697,83.5792213 237.842697,69.9732824 C237.842697,56.3673435 241.731841,43.6683972 248.460674,32.9243209 Z" id="Overlap" fill="#FFFFFF"/>
      </g>
    </g>
  </g>
  <path d="M 249.144 201.222 H 261.078 V 241.456 H 294.889 V 255.656 H 261.078 V 295.889 H 249.144 V 255.656 H 215.333 V 241.456 H 249.144 Z" style="fill: rgb(216, 216, 216); stroke: rgb(0, 0, 0); visibility: hidden;" transform="matrix(0, 0, 0, 1.2676010131835938, 215.33299255371094, -53.84722137451172)" bx:shape="cross 215.333 201.222 79.556 94.666 14.2 11.933 0.5 1@6f3efae5"/>
  <path d="M 242.49 207.5 H 257.51 V 242.5 H 292.5 V 257.5 H 257.51 V 292.5 H 242.49 V 257.5 H 207.5 V 242.5 H 242.49 Z" style="fill: rgb(255, 255, 255); stroke: rgb(32, 40, 48);" bx:shape="cross 207.5 207.5 85 85 15 15.02 0.5 1@d69727d2"/>
</svg>